<?xml version="1.0" encoding="utf-8"?>
<svg xmlns="http://www.w3.org/2000/svg" viewBox="0 0 24 24" fill="#000000"><path d="M 16.638672 1.9042969 L 16.068359 2.0214844 C 16.068359 2.0214844 13.891965 2.4729649 11.320312 3.5292969 C 8.7486616 4.5856288 5.7126699 6.2281869 3.953125 8.8632812 L 3.9375 8.8847656 L 3.9238281 8.90625 C 3.117214 10.261502 3 11.563976 3 12.5625 C 3 14.469775 3.8970272 16.083022 5.0566406 17.197266 C 5.5502907 17.671601 6.0941263 18.047902 6.65625 18.347656 C 5.7124953 19.05328 4.6998074 19.643905 3.6289062 20.072266 L 4.3710938 21.927734 C 9.7463903 19.777616 13.645891 14.528734 14.964844 9.2285156 L 13.023438 8.7460938 C 12.297056 11.665061 10.626181 14.620299 8.3535156 16.882812 C 7.7600793 16.707306 7.0409385 16.330059 6.4433594 15.755859 C 5.6029728 14.948353 5 13.842225 5 12.5625 C 5 11.704133 5.0742979 10.907299 5.6367188 9.9511719 C 7.007217 7.9178775 9.6982404 6.3572704 12.080078 5.3789062 C 14.148033 4.5294729 15.437855 4.2697877 15.880859 4.1699219 C 18.039377 6.8847258 18.969237 10.221386 18.998047 12.390625 C 19.028137 14.638794 18.446926 16.265722 17.582031 17.332031 C 16.720357 18.39437 15.57295 18.939564 14.242188 18.996094 C 13.647213 18.988594 12.968543 19.015564 11.982422 18.257812 L 10.763672 19.84375 C 12.225887 20.967347 13.710143 20.991474 14.253906 21 L 14.28125 21 L 14.308594 21 C 16.172464 20.92605 17.919161 20.090488 19.134766 18.591797 C 20.350371 17.093106 21.03296 14.974065 20.998047 12.365234 C 20.960613 9.5460885 19.860042 5.5623822 17.023438 2.3398438 L 16.638672 1.9042969 z" fill="#000000"/></svg>
