<?xml version="1.0" encoding="utf-8"?>
<svg xmlns="http://www.w3.org/2000/svg" viewBox="0 0 24 24" fill="#000000"><path d="M 10 2 L 9 3 L 5 3 L 4 3 L 4 5 L 5 5 L 5 19 C 5 20.654 6.346 22 8 22 L 11 22 L 11 20 L 8 20 C 7.448 20 7 19.551 7 19 L 7 5 L 17 5 L 17 13.556641 C 17.619 13.349641 18.276 13.186609 19 13.099609 L 19 5 L 20 5 L 20 3 L 19 3 L 15 3 L 14 2 L 10 2 z M 9 7 L 9 18 L 11 18 L 11 7 L 9 7 z M 13 7 L 13 18 L 13.015625 18 C 13.141625 16.668 13.832 15.466641 15 14.556641 L 15 7 L 13 7 z M 21.060547 15.005859 C 19.566797 14.961359 17.728609 15.139297 16.349609 16.029297 C 14.205411 17.570521 15.0853 19.801616 15.726562 20.464844 C 14.954968 20.776597 14.092476 20.970703 13.029297 20.970703 L 13.029297 22.970703 C 15.212312 22.970703 16.958427 22.296044 18.357422 21.300781 C 19.348767 20.595526 20.171483 19.744273 20.935547 18.867188 C 19.22224 21.832966 17.126953 23.361328 17.126953 23.361328 C 17.338953 23.575328 17.549031 23.647063 17.832031 23.789062 C 20.308031 24.856063 25.259125 21.866359 23.703125 15.318359 C 23.703125 15.318359 22.554297 15.050359 21.060547 15.005859 z" fill="#000000"/></svg>
