<?xml version="1.0" encoding="utf-8"?>
<svg xmlns="http://www.w3.org/2000/svg" viewBox="0 0 50 50" fill="#000000"><path d="M 11 3 C 9.3545455 3 8 4.3545455 8 6 C 8 7.4058413 9.0250308 8.5923732 10.382812 8.9101562 L 14.091797 47 L 35.908203 47 L 39.617188 8.9140625 C 40.546409 8.6742632 41.217844 7.9141516 41.583984 7 L 42 7 L 42 6 C 42 4.3545455 40.600391 3 38.900391 3 L 11 3 z M 11 5 L 38.900391 5 C 39.600391 5 40 5.4454545 40 6 C 40 6.5545455 39.554545 7 39 7 L 12 7 L 11.099609 7 C 10.399609 7 10 6.5545455 10 6 C 10 5.4454545 10.445455 5 11 5 z M 12.402344 9 L 37.597656 9 L 37 15.134766 L 37 15 L 12.986328 15 L 12.402344 9 z M 13.181641 17 L 36.818359 17 L 34.480469 41 L 15.519531 41 L 13.181641 17 z M 15.712891 43 L 34.287109 43 L 34.091797 45 L 15.908203 45 L 15.712891 43 z" fill="#000000"/></svg>
