<?xml version="1.0" encoding="utf-8"?>
<svg xmlns="http://www.w3.org/2000/svg" viewBox="0 0 24 24" fill="#000000"><path d="M 11.03125 3 C 9.8865255 3 8.8219757 3.6090929 8.28125 4.6152344 L 6.6796875 7.3261719 L 8.4003906 8.34375 L 10.033203 5.5800781 L 10.042969 5.5625 C 10.220243 5.2326415 10.597975 5 11.03125 5 L 13.019531 5 C 13.453413 5 13.83195 5.2321005 14.009766 5.5644531 L 14.019531 5.5820312 L 15.660156 8.3730469 L 14 9.3730469 L 18.117188 10.396484 L 19.138672 6.2773438 L 17.373047 7.3417969 L 15.773438 4.6210938 C 15.233218 3.6114464 14.165649 3 13.019531 3 L 11.03125 3 z M 6.6054688 9.6308594 L 2.4667969 10.566406 L 4.140625 11.623047 L 2.3847656 14.59375 L 2.375 14.611328 C 1.8464894 15.596074 1.9302039 16.807596 2.5859375 17.714844 L 2.5859375 17.716797 L 3.3125 18.71875 C 3.8991007 19.53189 4.8493769 20 5.8535156 20 L 10 20 L 10 18 L 5.8535156 18 C 5.4736544 18 5.1289929 17.819689 4.9335938 17.548828 L 4.2070312 16.544922 C 3.9867648 16.24017 3.9651824 15.881848 4.1386719 15.558594 L 5.8320312 12.691406 L 7.5390625 13.769531 L 6.6054688 9.6308594 z M 19.919922 11.671875 L 18.195312 12.685547 L 19.886719 15.5625 C 20.057964 15.884073 20.03559 16.242665 19.816406 16.544922 L 19.089844 17.548828 C 18.893632 17.819616 18.547845 18 18.169922 18 L 15 18 L 15 16 L 12 19 L 15 22 L 15 20 L 18.169922 20 C 19.171999 20 20.121193 19.533868 20.708984 18.722656 L 21.435547 17.71875 C 22.091927 16.813605 22.178033 15.603125 21.650391 14.617188 L 21.640625 14.599609 L 19.919922 11.671875 z" fill="#000000"/></svg>
